{"title":"Michael Collins (1996) DVDrip [Liam Neeson, Julia Roberts]","uid":5578236,"size":1076580399,"categoryP":"video","categoryS":"movies","magnet":"?xt=urn:btih:e27b0e62035123f2ce641ad900302cfcfef7853a&amp;dn=Michael+Collins+%281996%29+DVDrip+%5BLiam+Neeson%2C+Julia+Roberts%5D&amp;tr=udp%3A%2F%2Ftracker.openbittorrent.com%3A80&amp;tr=udp%3A%2F%2Fopen.demonii.com%3A1337&amp;tr=udp%3A%2F%2Ftracker.coppersurfer.tk%3A6969&amp;tr=udp%3A%2F%2Fexodus.desync.com%3A6969","seeders":42,"leechers":1,"uploader":"penisfuck","files":-1,"time":1274446875,"description":" &lt;a href=&quot;http://www.imdb.com/title/tt0117039/&quot; rel=&quot;nofollow&quot; target=&quot;_NEW&quot;&gt;http://www.imdb.com/title/tt0117039/&lt;/a&gt;\n\n      Format : AVI\n      File size : 1.00 GiB\n      Duration : 2h 7mn\n      Overall bit rate : 1 129 Kbps\n\n   Video\n      Format : MPEG-4 Visual\n      Muxing mode : Packed bitstream\n      Codec ID : XVID\n      Duration : 2h 7mn\n      Bit rate : 735 Kbps\n      Width : 608 pixels\n      Height : 336 pixels\n      Display aspect ratio : 16/9\n      Frame rate : 25.000 fps\n      Resolution : 24 bits\n      Colorimetry : 4:2:0\n      Scan type : Progressive\n      Bits/(Pixel*Frame) : 0.144\n      Stream size : 669 MiB (65%)\n      Writing library : XviD 50\n   Audio\n      Format : AC-3\n      Format/Info : Audio Coding 3\n      Codec ID : 2000\n      Duration : 2h 7mn\n      Bit rate mode : Constant\n      Bit rate : 384 Kbps\n      Channel(s) : 6 channels\n      Channel positions : Front: L C R, Surround: L R, LFE\n      Sampling rate : 48.0 KHz\n      Stream size : 349 MiB (34%)\n\nScreenshots: &lt;a href=&quot;\nhttp://img715.imageshack.us/gal.php?g=michaelcollins199617805.jpg&quot; rel=&quot;nofollow&quot; target=&quot;_NEW&quot;&gt;\nhttp://img715.imageshack.us/gal.php?g=michaelcollins199617805.jpg&lt;/a&gt;\n\n\nFound this on another site. Just want to share it.\nCredits go to the original rippers.","torrent":{"xt":"urn:btih:e27b0e62035123f2ce641ad900302cfcfef7853a","amp;dn":"Michael+Collins+%281996%29+DVDrip+%5BLiam+Neeson%2C+Julia+Roberts%5D","amp;tr":["udp%3A%2F%2Ftracker.openbittorrent.com%3A80","udp%3A%2F%2Fopen.demonii.com%3A1337","udp%3A%2F%2Ftracker.coppersurfer.tk%3A6969","udp%3A%2F%2Fexodus.desync.com%3A6969"],"infoHash":"e27b0e62035123f2ce641ad900302cfcfef7853a","infoHashBuffer":{"type":"Buffer","data":[226,123,14,98,3,81,35,242,206,100,26,217,0,48,44,252,254,247,133,58]},"announce":[],"urlList":[]}}